<svg width="35" height="37" viewBox="0 0 35 37" fill="none" xmlns="http://www.w3.org/2000/svg">
<path d="M3.85267 22.5847L3.87447 22.6065C3.87623 22.6077 3.87764 22.6093 3.87852 22.6112L17.4994 36.2324L31.1202 22.6115C31.1217 22.61 31.1242 22.6068 31.1242 22.6068L31.1467 22.585C33.2295 20.4905 34.5524 17.7599 34.9052 14.8272C35.2579 11.8945 34.6203 8.92802 33.0936 6.39929C31.5669 3.87056 29.2388 1.92468 26.4793 0.87119C23.7198 -0.1823 20.6874 -0.283251 17.864 0.584692C17.6264 0.657327 17.3725 0.657327 17.1349 0.584692C14.3118 -0.2829 11.2795 -0.181948 8.52021 0.871718C5.76091 1.92538 3.43303 3.87109 1.90643 6.39964C0.379842 8.9282 -0.257883 11.8945 0.0947476 14.827C0.447378 17.7596 1.77013 20.4902 3.85267 22.5847ZM26.2768 13.6026C26.3431 13.5363 26.3957 13.4575 26.4316 13.371C26.4674 13.2844 26.4859 13.1916 26.4859 13.0978C26.4616 10.6938 25.7822 8.342 24.5208 6.29535C24.4921 6.24892 24.4789 6.19457 24.483 6.14023C24.487 6.08588 24.5082 6.03417 24.5434 5.99249C24.5787 5.95081 24.6262 5.92144 24.6791 5.90842C24.7321 5.89541 24.7878 5.89945 24.8384 5.92003C25.7867 6.31891 26.6482 6.89878 27.3747 7.62707C28.8635 9.11621 29.7005 11.1354 29.7019 13.2412C29.7033 15.3469 28.8688 17.3672 27.3819 18.8581L17.4994 28.7397L7.61744 18.8581C6.13025 17.3674 5.29554 15.3471 5.29695 13.2412C5.29818 11.1354 6.13534 9.11621 7.6243 7.62708C8.35084 6.89878 9.21228 6.31891 10.1604 5.92003C10.2111 5.89945 10.2668 5.89541 10.3198 5.90842C10.3727 5.92144 10.4202 5.95099 10.4555 5.99249C10.4907 6.03418 10.512 6.08588 10.516 6.1404C10.5201 6.19475 10.5069 6.2491 10.4782 6.29553C9.2165 8.34201 8.53674 10.6938 8.51212 13.0978C8.51212 13.1916 8.53076 13.2844 8.56682 13.3711C8.60287 13.4579 8.65563 13.5365 8.72211 13.6028L13.3963 18.5607C13.4429 18.5996 13.5015 18.6208 13.5622 18.6208C13.6227 18.6208 13.6814 18.5996 13.7279 18.5607C13.7745 18.522 13.8058 18.468 13.8167 18.4084C13.8276 18.3488 13.8172 18.2874 13.7873 18.2346C11.9719 14.9494 13.533 10.2307 16.1363 7.62707L16.15 7.61336C16.5093 7.25791 16.9944 7.05865 17.4998 7.05882C18.0052 7.059 18.4902 7.25862 18.8492 7.61424L18.8618 7.62707C21.4661 10.2307 23.0264 14.9489 21.2107 18.2339C21.1808 18.2867 21.1704 18.3481 21.1813 18.4077C21.1921 18.4673 21.2236 18.5213 21.2701 18.56C21.3166 18.5989 21.3753 18.6201 21.4358 18.6201C21.4964 18.6201 21.5551 18.5989 21.6016 18.56L26.2768 13.6026Z" fill="#F53838"/>
</svg>
